<svg width="15" height="15" viewBox="0 0 15 15" fill="none" xmlns="http://www.w3.org/2000/svg">
<g clip-path="url(#clip0_132_480)">
<path d="M1.87503 11.2501C1.875 11.2097 1.875 11.1681 1.875 11.1251V3.87512C1.875 3.17506 1.875 2.82476 2.01124 2.55737C2.13108 2.32217 2.32217 2.13108 2.55737 2.01124C2.82476 1.875 3.17506 1.875 3.87512 1.875H11.1251C11.8252 1.875 12.175 1.875 12.4424 2.01124C12.6776 2.13108 12.8691 2.32217 12.9889 2.55737C13.125 2.8245 13.125 3.17437 13.125 3.87307V11.1269C13.125 11.4301 13.125 11.6674 13.1139 11.8609M1.87503 11.2501C1.87551 11.8678 1.88336 12.1911 2.01124 12.4421C2.13108 12.6773 2.32217 12.8691 2.55737 12.9889C2.8245 13.125 3.17437 13.125 3.87307 13.125H11.1272C11.8259 13.125 12.1753 13.125 12.4424 12.9889C12.6776 12.8691 12.8691 12.6773 12.9889 12.4421C13.0659 12.2909 13.0994 12.1133 13.1139 11.8609M1.87503 11.2501L4.85499 7.77344L4.85587 7.77247C5.12017 7.46412 5.25254 7.30969 5.40954 7.25403C5.54746 7.20513 5.69804 7.20627 5.83527 7.25708C5.99165 7.31498 6.12191 7.47117 6.38245 7.78381L8.05192 9.78719C8.2931 10.0766 8.41438 10.2221 8.56164 10.2806C8.69154 10.3321 8.83478 10.3379 8.96881 10.2983C9.12137 10.2533 9.25567 10.119 9.52423 9.85046L9.8349 9.53979C10.1083 9.26636 10.2451 9.12974 10.3998 9.08508C10.5357 9.04586 10.681 9.05428 10.8118 9.10828C10.9606 9.16975 11.0814 9.32024 11.3229 9.62219L13.1139 11.8609M13.1139 11.8609L13.125 11.8748M9.375 5.625C9.02982 5.625 8.75 5.34518 8.75 5C8.75 4.65482 9.02982 4.375 9.375 4.375C9.72018 4.375 10 4.65482 10 5C10 5.34518 9.72018 5.625 9.375 5.625Z" stroke="black" stroke-opacity="0.8" stroke-width="2" stroke-linecap="round" stroke-linejoin="round"/>
</g>
<defs>
<clipPath id="clip0_132_480">
<rect width="15" height="15" fill="white"/>
</clipPath>
</defs>
</svg>
