<svg width="24" height="24" viewBox="0 0 24 24" fill="none" xmlns="http://www.w3.org/2000/svg">
<circle cx="3" cy="3" r="3" transform="matrix(-1 0 0 1 15 9)" stroke="#7F7F7F" stroke-width="2"/>
<path d="M16.5001 4.9375L17.0001 4.07147L17.0001 4.07147L16.5001 4.9375ZM16.5 19.0621L16 18.1961L16.5 19.0621ZM7.49999 19.0621L6.99999 19.9282H6.99999L7.49999 19.0621ZM7.49999 4.9375L7.99999 5.80353L7.49999 4.9375ZM8.92293 3.01508L7.94867 2.78965L8.92293 3.01508ZM5.31183 18.7402L5.08226 17.7669L5.31183 18.7402ZM4.40294 18.503L5.16233 17.8524L4.40294 18.503ZM9.53921 21.695L9.78452 20.7255L9.53921 21.695ZM8.92299 20.9848L9.89727 20.7595L8.92299 20.9848ZM15.077 20.9848L14.1027 20.7595L15.077 20.9848ZM14.4608 21.695L14.7061 22.6644L14.4608 21.695ZM19.597 18.503L18.8376 17.8524L19.597 18.503ZM21.4437 8.70289L22.3878 8.37329L21.4437 8.70289ZM21.0935 9.68352L20.4576 8.91174L21.0935 9.68352ZM18.6879 5.2595L18.4585 4.28619L18.6879 5.2595ZM21.0935 14.3165L20.4576 15.0883L21.0935 14.3165ZM21.4437 15.2971L20.4995 14.9675L21.4437 15.2971ZM15.0771 3.01511L14.1029 3.24054L15.0771 3.01511ZM14.1029 3.24054C14.3436 4.28109 15.0004 5.22636 16.0001 5.80353L17.0001 4.07147C16.5002 3.78286 16.1724 3.31276 16.0514 2.78967L14.1029 3.24054ZM16.0001 5.80352C16.9183 6.33367 17.9616 6.45816 18.9174 6.23282L18.4585 4.28619C17.9788 4.39927 17.4598 4.33691 17.0001 4.07147L16.0001 5.80352ZM22.3878 8.37329C21.9318 7.06705 21.2368 5.87392 20.3561 4.84604L18.8374 6.14738C19.5589 6.98948 20.1271 7.9656 20.4995 9.03248L22.3878 8.37329ZM20.9999 12C20.9999 11.3785 21.2823 10.8237 21.7294 10.4553L20.4576 8.91174C19.5692 9.64378 18.9999 10.7558 18.9999 12H20.9999ZM21.7294 13.5447C21.2823 13.1763 20.9999 12.6215 20.9999 12H18.9999C18.9999 13.2442 19.5692 14.3562 20.4576 15.0883L21.7294 13.5447ZM20.3564 19.1536C21.237 18.1258 21.9318 16.9328 22.3878 15.6267L20.4995 14.9675C20.1271 16.0343 19.559 17.0103 18.8376 17.8524L20.3564 19.1536ZM17 19.9282C17.4598 19.6627 17.9789 19.6004 18.4586 19.7135L18.9177 17.7669C17.9618 17.5415 16.9183 17.6659 16 18.1961L17 19.9282ZM16.0513 21.2102C16.1723 20.687 16.5 20.2168 17 19.9282L16 18.1961C15.0002 18.7734 14.3434 19.7188 14.1027 20.7595L16.0513 21.2102ZM11.9999 23C12.9325 23 13.8393 22.8837 14.7061 22.6644L14.2155 20.7255C13.5078 20.9046 12.7657 21 11.9999 21V23ZM9.29391 22.6644C10.1607 22.8837 11.0674 23 11.9999 23V21C11.2342 21 10.4922 20.9046 9.78452 20.7255L9.29391 22.6644ZM6.99999 19.9282C7.49995 20.2168 7.8277 20.687 7.9487 21.2102L9.89727 20.7595C9.65657 19.7188 8.9998 18.7734 7.99999 18.1961L6.99999 19.9282ZM5.5414 19.7135C6.02108 19.6004 6.54019 19.6627 6.99999 19.9282L7.99999 18.1961C7.08163 17.6659 6.03813 17.5415 5.08226 17.7669L5.5414 19.7135ZM1.61213 15.6267C2.0681 16.9328 2.76293 18.1258 3.64356 19.1537L5.16233 17.8524C4.44087 17.0103 3.87279 16.0343 3.50037 14.9675L1.61213 15.6267ZM2.99998 12C2.99998 12.6215 2.71765 13.1763 2.2705 13.5447L3.54227 15.0883C4.43076 14.3562 4.99998 13.2442 4.99998 12H2.99998ZM2.2705 10.4553C2.71765 10.8237 2.99998 11.3785 2.99998 12H4.99998C4.99998 10.7558 4.43076 9.64377 3.54227 8.91173L2.2705 10.4553ZM3.64385 4.846C2.76308 5.87389 2.06815 7.06702 1.61213 8.37327L3.50037 9.03247C3.87283 7.96558 4.44099 6.98945 5.16257 6.14735L3.64385 4.846ZM6.99999 4.07147C6.54023 4.33692 6.02117 4.39928 5.54152 4.28617L5.0825 6.23279C6.03831 6.45817 7.08171 6.33369 7.99999 5.80353L6.99999 4.07147ZM7.94867 2.78965C7.82763 3.31275 7.4999 3.78285 6.99999 4.07147L7.99999 5.80353C8.99969 5.22635 9.65642 4.28107 9.89719 3.24051L7.94867 2.78965ZM11.9999 1C11.0674 1 10.1606 1.11627 9.29383 1.3356L9.78445 3.27449C10.4921 3.09541 11.2342 3 11.9999 3V1ZM14.7063 1.33564C13.8394 1.11628 12.9326 1 11.9999 1V3C12.7658 3 13.5079 3.09542 14.2156 3.27453L14.7063 1.33564ZM9.89719 3.24051C9.90075 3.22513 9.90528 3.21309 9.909 3.20524C9.91274 3.19733 9.91393 3.19728 9.90931 3.2029C9.90449 3.20877 9.89224 3.22206 9.87011 3.23681C9.84714 3.25212 9.81782 3.26604 9.78445 3.27449L9.29383 1.3356C8.48128 1.54121 8.0764 2.23763 7.94867 2.78965L9.89719 3.24051ZM3.54227 8.91173C3.5284 8.9003 3.5177 8.88864 3.51064 8.87922C3.5035 8.86969 3.50325 8.86672 3.50566 8.87288C3.50821 8.87941 3.5145 8.89836 3.51586 8.9286C3.51728 8.96034 3.51282 8.99683 3.50037 9.03247L1.61213 8.37327C1.2992 9.26965 1.78805 10.0578 2.2705 10.4553L3.54227 8.91173ZM5.08226 17.7669C5.06696 17.7705 5.05422 17.7718 5.04559 17.7719C5.03689 17.7721 5.03633 17.771 5.04338 17.7727C5.05074 17.7744 5.06799 17.7795 5.0909 17.7927C5.11468 17.8064 5.14004 17.8264 5.16233 17.8524L3.64356 19.1537C4.18786 19.7889 4.99 19.8436 5.5414 19.7135L5.08226 17.7669ZM9.78452 20.7255C9.81789 20.734 9.84722 20.7479 9.87019 20.7632C9.89232 20.778 9.90457 20.7913 9.90939 20.7971C9.91401 20.8027 9.91282 20.8027 9.90907 20.7948C9.90536 20.7869 9.90082 20.7749 9.89727 20.7595L7.9487 21.2102C8.07639 21.7623 8.48127 22.4588 9.29391 22.6644L9.78452 20.7255ZM14.1027 20.7595C14.0992 20.7749 14.0946 20.7869 14.0909 20.7948C14.0872 20.8027 14.086 20.8027 14.0906 20.7971C14.0954 20.7912 14.1077 20.7779 14.1298 20.7632C14.1528 20.7479 14.1821 20.734 14.2155 20.7255L14.7061 22.6644C15.5187 22.4588 15.9236 21.7622 16.0513 21.2102L14.1027 20.7595ZM18.8376 17.8524C18.8599 17.8263 18.8852 17.8064 18.909 17.7926C18.9319 17.7794 18.9492 17.7744 18.9565 17.7727C18.9636 17.771 18.963 17.7721 18.9543 17.7719C18.9457 17.7718 18.933 17.7705 18.9177 17.7669L18.4586 19.7135C19.0099 19.8435 19.8121 19.7889 20.3564 19.1536L18.8376 17.8524ZM20.4995 9.03248C20.4871 8.99684 20.4826 8.96036 20.484 8.92862C20.4854 8.89838 20.4917 8.87942 20.4942 8.87289C20.4967 8.86673 20.4964 8.8697 20.4893 8.87923C20.4822 8.88866 20.4715 8.90031 20.4576 8.91174L21.7294 10.4553C22.2119 10.0578 22.7007 9.26966 22.3878 8.37329L20.4995 9.03248ZM3.50037 14.9675C3.51281 15.0032 3.51728 15.0397 3.51586 15.0714C3.5145 15.1016 3.50821 15.1206 3.50565 15.1271C3.50324 15.1333 3.5035 15.1303 3.51064 15.1208C3.5177 15.1114 3.5284 15.0997 3.54227 15.0883L2.2705 13.5447C1.78804 13.9422 1.2992 14.7303 1.61213 15.6267L3.50037 14.9675ZM18.9174 6.23282C18.9327 6.22921 18.9455 6.22795 18.9541 6.2278C18.9628 6.22766 18.9633 6.2287 18.9563 6.22705C18.9489 6.22534 18.9317 6.22028 18.9088 6.20707C18.885 6.19336 18.8596 6.17339 18.8374 6.14738L20.3561 4.84604C19.8118 4.21088 19.0098 4.1562 18.4585 4.28619L18.9174 6.23282ZM5.16257 6.14735C5.14028 6.17336 5.11492 6.19333 5.09115 6.20704C5.06824 6.22025 5.05099 6.22531 5.04363 6.22702C5.03658 6.22867 5.03714 6.22763 5.04584 6.22777C5.05446 6.22792 5.0672 6.22918 5.0825 6.23279L5.54152 4.28617C4.99017 4.15616 4.18812 4.21083 3.64385 4.846L5.16257 6.14735ZM20.4576 15.0883C20.4715 15.0997 20.4822 15.1113 20.4893 15.1208C20.4964 15.1303 20.4967 15.1333 20.4942 15.1271C20.4917 15.1206 20.4854 15.1016 20.484 15.0714C20.4826 15.0396 20.4871 15.0032 20.4995 14.9675L22.3878 15.6267C22.7007 14.7303 22.2119 13.9422 21.7294 13.5447L20.4576 15.0883ZM16.0514 2.78967C15.9237 2.23766 15.5188 1.54126 14.7063 1.33564L14.2156 3.27453C14.1822 3.26608 14.1529 3.25215 14.1299 3.23684C14.1078 3.2221 14.0956 3.2088 14.0907 3.20294C14.0861 3.19732 14.0873 3.19737 14.0911 3.20528C14.0948 3.21312 14.0993 3.22516 14.1029 3.24054L16.0514 2.78967Z" fill="#7F7F7F"/>
</svg>
